<mxfile host="Electron" modified="2024-07-09T06:29:54.743Z" agent="Mozilla/5.0 (Windows NT 10.0; Win64; x64) AppleWebKit/537.36 (KHTML, like Gecko) draw.io/22.1.11 Chrome/114.0.5735.289 Electron/25.9.8 Safari/537.36" etag="jqhFhLoiqwa7LXU1ONG2" version="22.1.11" type="device">
  <diagram id="q4LBJdAFQtLXsQNykBPc" name="PÃ¡gina-1">
    <mxGraphModel dx="2387" dy="1084" grid="1" gridSize="10" guides="1" tooltips="1" connect="1" arrows="1" fold="1" page="1" pageScale="1" pageWidth="827" pageHeight="1169" math="0" shadow="0">
      <root>
        <mxCell id="0" />
        <mxCell id="1" parent="0" />
        <mxCell id="u76Rm4gEM_C_OtlietBQ-20" style="edgeStyle=orthogonalEdgeStyle;rounded=0;orthogonalLoop=1;jettySize=auto;html=1;exitX=0;exitY=0.5;exitDx=0;exitDy=0;entryX=1;entryY=0.5;entryDx=0;entryDy=0;entryPerimeter=0;endArrow=none;endFill=0;" parent="1" source="u76Rm4gEM_C_OtlietBQ-1" target="u76Rm4gEM_C_OtlietBQ-11" edge="1">
          <mxGeometry relative="1" as="geometry">
            <mxPoint y="470" as="targetPoint" />
          </mxGeometry>
        </mxCell>
        <mxCell id="u76Rm4gEM_C_OtlietBQ-21" style="edgeStyle=orthogonalEdgeStyle;rounded=0;orthogonalLoop=1;jettySize=auto;html=1;exitX=0;exitY=0.25;exitDx=0;exitDy=0;entryX=1;entryY=0.5;entryDx=0;entryDy=0;endArrow=none;endFill=0;" parent="1" source="u76Rm4gEM_C_OtlietBQ-1" target="u76Rm4gEM_C_OtlietBQ-10" edge="1">
          <mxGeometry relative="1" as="geometry">
            <Array as="points">
              <mxPoint x="50" y="485" />
              <mxPoint x="50" y="450" />
              <mxPoint x="90" y="450" />
              <mxPoint x="90" y="410" />
            </Array>
          </mxGeometry>
        </mxCell>
        <mxCell id="u76Rm4gEM_C_OtlietBQ-22" style="edgeStyle=orthogonalEdgeStyle;rounded=0;orthogonalLoop=1;jettySize=auto;html=1;exitX=0.25;exitY=0;exitDx=0;exitDy=0;entryX=0.5;entryY=1;entryDx=0;entryDy=0;endArrow=none;endFill=0;" parent="1" source="u76Rm4gEM_C_OtlietBQ-1" target="u76Rm4gEM_C_OtlietBQ-6" edge="1">
          <mxGeometry relative="1" as="geometry" />
        </mxCell>
        <mxCell id="u76Rm4gEM_C_OtlietBQ-23" style="edgeStyle=orthogonalEdgeStyle;rounded=0;orthogonalLoop=1;jettySize=auto;html=1;exitX=0.5;exitY=0;exitDx=0;exitDy=0;entryX=0.5;entryY=1;entryDx=0;entryDy=0;endArrow=none;endFill=0;" parent="1" source="u76Rm4gEM_C_OtlietBQ-1" target="u76Rm4gEM_C_OtlietBQ-7" edge="1">
          <mxGeometry relative="1" as="geometry" />
        </mxCell>
        <mxCell id="u76Rm4gEM_C_OtlietBQ-24" style="edgeStyle=orthogonalEdgeStyle;rounded=0;orthogonalLoop=1;jettySize=auto;html=1;exitX=0.75;exitY=0;exitDx=0;exitDy=0;endArrow=none;endFill=0;" parent="1" source="u76Rm4gEM_C_OtlietBQ-1" target="u76Rm4gEM_C_OtlietBQ-8" edge="1">
          <mxGeometry relative="1" as="geometry" />
        </mxCell>
        <mxCell id="u76Rm4gEM_C_OtlietBQ-25" style="edgeStyle=orthogonalEdgeStyle;rounded=0;orthogonalLoop=1;jettySize=auto;html=1;exitX=1;exitY=0.5;exitDx=0;exitDy=0;endArrow=none;endFill=0;" parent="1" source="u76Rm4gEM_C_OtlietBQ-1" target="u76Rm4gEM_C_OtlietBQ-9" edge="1">
          <mxGeometry relative="1" as="geometry" />
        </mxCell>
        <mxCell id="5D3FNTWJ_CW6h_wblPsu-8" style="edgeStyle=orthogonalEdgeStyle;rounded=0;orthogonalLoop=1;jettySize=auto;html=1;exitX=1;exitY=1;exitDx=0;exitDy=0;entryX=0;entryY=0.5;entryDx=0;entryDy=0;endArrow=none;endFill=0;" parent="1" source="u76Rm4gEM_C_OtlietBQ-1" target="u76Rm4gEM_C_OtlietBQ-26" edge="1">
          <mxGeometry relative="1" as="geometry" />
        </mxCell>
        <mxCell id="5D3FNTWJ_CW6h_wblPsu-15" style="edgeStyle=orthogonalEdgeStyle;rounded=0;orthogonalLoop=1;jettySize=auto;html=1;exitX=0.25;exitY=1;exitDx=0;exitDy=0;entryX=0.925;entryY=0.405;entryDx=0;entryDy=0;entryPerimeter=0;endArrow=none;endFill=0;" parent="1" source="u76Rm4gEM_C_OtlietBQ-1" target="UcTRCQob1DQ4sOOuTBI0-2" edge="1">
          <mxGeometry relative="1" as="geometry" />
        </mxCell>
        <mxCell id="u76Rm4gEM_C_OtlietBQ-1" value="&lt;b&gt;Usuario&lt;/b&gt;" style="rounded=0;whiteSpace=wrap;html=1;" parent="1" vertex="1">
          <mxGeometry x="-130" y="470" width="120" height="60" as="geometry" />
        </mxCell>
        <mxCell id="u76Rm4gEM_C_OtlietBQ-43" style="edgeStyle=orthogonalEdgeStyle;rounded=0;orthogonalLoop=1;jettySize=auto;html=1;exitX=0.25;exitY=0;exitDx=0;exitDy=0;entryX=0.5;entryY=1;entryDx=0;entryDy=0;endArrow=none;endFill=0;" parent="1" source="u76Rm4gEM_C_OtlietBQ-2" target="u76Rm4gEM_C_OtlietBQ-35" edge="1">
          <mxGeometry relative="1" as="geometry" />
        </mxCell>
        <mxCell id="u76Rm4gEM_C_OtlietBQ-44" style="edgeStyle=orthogonalEdgeStyle;rounded=0;orthogonalLoop=1;jettySize=auto;html=1;exitX=0.75;exitY=0;exitDx=0;exitDy=0;entryX=0.5;entryY=1;entryDx=0;entryDy=0;endArrow=none;endFill=0;" parent="1" source="u76Rm4gEM_C_OtlietBQ-2" target="u76Rm4gEM_C_OtlietBQ-38" edge="1">
          <mxGeometry relative="1" as="geometry" />
        </mxCell>
        <mxCell id="u76Rm4gEM_C_OtlietBQ-45" style="edgeStyle=orthogonalEdgeStyle;rounded=0;orthogonalLoop=1;jettySize=auto;html=1;exitX=1;exitY=0.25;exitDx=0;exitDy=0;entryX=0;entryY=0.5;entryDx=0;entryDy=0;endArrow=none;endFill=0;" parent="1" source="u76Rm4gEM_C_OtlietBQ-2" target="u76Rm4gEM_C_OtlietBQ-39" edge="1">
          <mxGeometry relative="1" as="geometry" />
        </mxCell>
        <mxCell id="u76Rm4gEM_C_OtlietBQ-46" style="edgeStyle=orthogonalEdgeStyle;rounded=0;orthogonalLoop=1;jettySize=auto;html=1;exitX=1;exitY=0.75;exitDx=0;exitDy=0;entryX=0;entryY=0.5;entryDx=0;entryDy=0;endArrow=none;endFill=0;" parent="1" source="u76Rm4gEM_C_OtlietBQ-2" target="u76Rm4gEM_C_OtlietBQ-40" edge="1">
          <mxGeometry relative="1" as="geometry" />
        </mxCell>
        <mxCell id="u76Rm4gEM_C_OtlietBQ-47" style="edgeStyle=orthogonalEdgeStyle;rounded=0;orthogonalLoop=1;jettySize=auto;html=1;exitX=0.75;exitY=1;exitDx=0;exitDy=0;entryX=0;entryY=0;entryDx=0;entryDy=0;endArrow=none;endFill=0;" parent="1" source="u76Rm4gEM_C_OtlietBQ-2" target="u76Rm4gEM_C_OtlietBQ-41" edge="1">
          <mxGeometry relative="1" as="geometry" />
        </mxCell>
        <mxCell id="u76Rm4gEM_C_OtlietBQ-48" style="edgeStyle=orthogonalEdgeStyle;rounded=0;orthogonalLoop=1;jettySize=auto;html=1;exitX=0.25;exitY=1;exitDx=0;exitDy=0;entryX=0.5;entryY=0;entryDx=0;entryDy=0;endArrow=none;endFill=0;" parent="1" source="u76Rm4gEM_C_OtlietBQ-2" target="u76Rm4gEM_C_OtlietBQ-42" edge="1">
          <mxGeometry relative="1" as="geometry" />
        </mxCell>
        <mxCell id="5D3FNTWJ_CW6h_wblPsu-10" style="edgeStyle=orthogonalEdgeStyle;rounded=0;orthogonalLoop=1;jettySize=auto;html=1;exitX=0.5;exitY=0;exitDx=0;exitDy=0;entryX=0;entryY=0.5;entryDx=0;entryDy=0;endArrow=none;endFill=0;" parent="1" source="u76Rm4gEM_C_OtlietBQ-2" target="u76Rm4gEM_C_OtlietBQ-29" edge="1">
          <mxGeometry relative="1" as="geometry">
            <Array as="points">
              <mxPoint x="360" y="550" />
              <mxPoint x="360" y="370" />
            </Array>
          </mxGeometry>
        </mxCell>
        <mxCell id="5D3FNTWJ_CW6h_wblPsu-13" style="edgeStyle=orthogonalEdgeStyle;rounded=0;orthogonalLoop=1;jettySize=auto;html=1;exitX=0.5;exitY=1;exitDx=0;exitDy=0;entryX=0;entryY=0.5;entryDx=0;entryDy=0;endArrow=none;endFill=0;" parent="1" source="u76Rm4gEM_C_OtlietBQ-2" target="u76Rm4gEM_C_OtlietBQ-32" edge="1">
          <mxGeometry relative="1" as="geometry" />
        </mxCell>
        <mxCell id="u76Rm4gEM_C_OtlietBQ-2" value="&lt;b&gt;Evento&lt;/b&gt;" style="rounded=0;whiteSpace=wrap;html=1;" parent="1" vertex="1">
          <mxGeometry x="310" y="550" width="120" height="60" as="geometry" />
        </mxCell>
        <mxCell id="u76Rm4gEM_C_OtlietBQ-51" style="edgeStyle=orthogonalEdgeStyle;rounded=0;orthogonalLoop=1;jettySize=auto;html=1;exitX=0.75;exitY=0;exitDx=0;exitDy=0;endArrow=none;endFill=0;" parent="1" source="u76Rm4gEM_C_OtlietBQ-3" target="u76Rm4gEM_C_OtlietBQ-49" edge="1">
          <mxGeometry relative="1" as="geometry" />
        </mxCell>
        <mxCell id="u76Rm4gEM_C_OtlietBQ-52" style="edgeStyle=orthogonalEdgeStyle;rounded=0;orthogonalLoop=1;jettySize=auto;html=1;exitX=1;exitY=0.75;exitDx=0;exitDy=0;entryX=0;entryY=0;entryDx=0;entryDy=0;endArrow=none;endFill=0;" parent="1" source="u76Rm4gEM_C_OtlietBQ-3" target="u76Rm4gEM_C_OtlietBQ-50" edge="1">
          <mxGeometry relative="1" as="geometry" />
        </mxCell>
        <mxCell id="KMMMAnW7-SWp0cRhZt_q-2" style="edgeStyle=orthogonalEdgeStyle;rounded=0;orthogonalLoop=1;jettySize=auto;html=1;exitX=0.25;exitY=0;exitDx=0;exitDy=0;entryX=0.5;entryY=1;entryDx=0;entryDy=0;endArrow=none;endFill=0;" edge="1" parent="1" source="u76Rm4gEM_C_OtlietBQ-3" target="KMMMAnW7-SWp0cRhZt_q-1">
          <mxGeometry relative="1" as="geometry" />
        </mxCell>
        <mxCell id="u76Rm4gEM_C_OtlietBQ-3" value="&lt;b&gt;Categoria&lt;/b&gt;" style="rounded=0;whiteSpace=wrap;html=1;" parent="1" vertex="1">
          <mxGeometry x="550" y="340" width="120" height="60" as="geometry" />
        </mxCell>
        <mxCell id="u76Rm4gEM_C_OtlietBQ-57" style="edgeStyle=orthogonalEdgeStyle;rounded=0;orthogonalLoop=1;jettySize=auto;html=1;exitX=0.5;exitY=0;exitDx=0;exitDy=0;entryX=0.5;entryY=1;entryDx=0;entryDy=0;endArrow=none;endFill=0;" parent="1" source="u76Rm4gEM_C_OtlietBQ-5" target="u76Rm4gEM_C_OtlietBQ-53" edge="1">
          <mxGeometry relative="1" as="geometry" />
        </mxCell>
        <mxCell id="u76Rm4gEM_C_OtlietBQ-58" style="edgeStyle=orthogonalEdgeStyle;rounded=0;orthogonalLoop=1;jettySize=auto;html=1;exitX=1;exitY=0.25;exitDx=0;exitDy=0;entryX=0;entryY=0.5;entryDx=0;entryDy=0;endArrow=none;endFill=0;" parent="1" source="u76Rm4gEM_C_OtlietBQ-5" target="u76Rm4gEM_C_OtlietBQ-54" edge="1">
          <mxGeometry relative="1" as="geometry" />
        </mxCell>
        <mxCell id="u76Rm4gEM_C_OtlietBQ-59" style="edgeStyle=orthogonalEdgeStyle;rounded=0;orthogonalLoop=1;jettySize=auto;html=1;exitX=1;exitY=0.75;exitDx=0;exitDy=0;entryX=0;entryY=0.5;entryDx=0;entryDy=0;endArrow=none;endFill=0;" parent="1" source="u76Rm4gEM_C_OtlietBQ-5" target="u76Rm4gEM_C_OtlietBQ-55" edge="1">
          <mxGeometry relative="1" as="geometry" />
        </mxCell>
        <mxCell id="u76Rm4gEM_C_OtlietBQ-60" style="edgeStyle=orthogonalEdgeStyle;rounded=0;orthogonalLoop=1;jettySize=auto;html=1;exitX=0.75;exitY=1;exitDx=0;exitDy=0;endArrow=none;endFill=0;" parent="1" source="u76Rm4gEM_C_OtlietBQ-5" target="u76Rm4gEM_C_OtlietBQ-56" edge="1">
          <mxGeometry relative="1" as="geometry" />
        </mxCell>
        <mxCell id="u76Rm4gEM_C_OtlietBQ-5" value="&lt;b&gt;Lugar&lt;/b&gt;" style="rounded=0;whiteSpace=wrap;html=1;" parent="1" vertex="1">
          <mxGeometry x="550" y="700" width="120" height="60" as="geometry" />
        </mxCell>
        <mxCell id="u76Rm4gEM_C_OtlietBQ-6" value="&lt;u&gt;ID&lt;/u&gt;" style="ellipse;whiteSpace=wrap;html=1;" parent="1" vertex="1">
          <mxGeometry x="-170" y="370" width="70" height="40" as="geometry" />
        </mxCell>
        <mxCell id="u76Rm4gEM_C_OtlietBQ-7" value="Nombre&amp;nbsp;" style="ellipse;whiteSpace=wrap;html=1;" parent="1" vertex="1">
          <mxGeometry x="-90" y="370" width="80" height="30" as="geometry" />
        </mxCell>
        <mxCell id="u76Rm4gEM_C_OtlietBQ-8" value="Apellidos" style="ellipse;whiteSpace=wrap;html=1;" parent="1" vertex="1">
          <mxGeometry y="365" width="90" height="40" as="geometry" />
        </mxCell>
        <mxCell id="u76Rm4gEM_C_OtlietBQ-9" value="E-mail" style="ellipse;whiteSpace=wrap;html=1;" parent="1" vertex="1">
          <mxGeometry x="80" y="480" width="90" height="40" as="geometry" />
        </mxCell>
        <mxCell id="u76Rm4gEM_C_OtlietBQ-10" value="Apodo(nick)&lt;br&gt;" style="ellipse;whiteSpace=wrap;html=1;" parent="1" vertex="1">
          <mxGeometry x="100" y="390" width="90" height="40" as="geometry" />
        </mxCell>
        <mxCell id="u76Rm4gEM_C_OtlietBQ-11" value="ContraseÃ±a" style="ellipse;whiteSpace=wrap;html=1;" parent="1" vertex="1">
          <mxGeometry x="-300" y="450" width="90" height="50" as="geometry" />
        </mxCell>
        <mxCell id="u76Rm4gEM_C_OtlietBQ-37" style="edgeStyle=orthogonalEdgeStyle;rounded=0;orthogonalLoop=1;jettySize=auto;html=1;exitX=1;exitY=0.5;exitDx=0;exitDy=0;endArrow=none;endFill=0;" parent="1" source="u76Rm4gEM_C_OtlietBQ-26" edge="1">
          <mxGeometry relative="1" as="geometry">
            <mxPoint x="190" y="580" as="targetPoint" />
          </mxGeometry>
        </mxCell>
        <mxCell id="5D3FNTWJ_CW6h_wblPsu-9" style="edgeStyle=orthogonalEdgeStyle;rounded=0;orthogonalLoop=1;jettySize=auto;html=1;exitX=1;exitY=0.5;exitDx=0;exitDy=0;entryX=0;entryY=0.5;entryDx=0;entryDy=0;endArrow=none;endFill=0;" parent="1" source="u76Rm4gEM_C_OtlietBQ-26" target="u76Rm4gEM_C_OtlietBQ-2" edge="1">
          <mxGeometry relative="1" as="geometry" />
        </mxCell>
        <mxCell id="u76Rm4gEM_C_OtlietBQ-26" value="&lt;b&gt;Consulta&lt;br&gt;&lt;br&gt;&lt;/b&gt;" style="rhombus;whiteSpace=wrap;html=1;" parent="1" vertex="1">
          <mxGeometry x="100" y="540" width="80" height="80" as="geometry" />
        </mxCell>
        <mxCell id="5D3FNTWJ_CW6h_wblPsu-12" style="edgeStyle=orthogonalEdgeStyle;rounded=0;orthogonalLoop=1;jettySize=auto;html=1;exitX=1;exitY=0.5;exitDx=0;exitDy=0;entryX=0;entryY=0.5;entryDx=0;entryDy=0;endArrow=none;endFill=0;" parent="1" source="u76Rm4gEM_C_OtlietBQ-29" target="u76Rm4gEM_C_OtlietBQ-3" edge="1">
          <mxGeometry relative="1" as="geometry" />
        </mxCell>
        <mxCell id="u76Rm4gEM_C_OtlietBQ-29" value="&lt;b&gt;Tiene&lt;/b&gt;" style="rhombus;whiteSpace=wrap;html=1;" parent="1" vertex="1">
          <mxGeometry x="380" y="330" width="80" height="80" as="geometry" />
        </mxCell>
        <mxCell id="5D3FNTWJ_CW6h_wblPsu-14" style="edgeStyle=orthogonalEdgeStyle;rounded=0;orthogonalLoop=1;jettySize=auto;html=1;exitX=1;exitY=0.5;exitDx=0;exitDy=0;entryX=0.5;entryY=1;entryDx=0;entryDy=0;endArrow=none;endFill=0;" parent="1" source="u76Rm4gEM_C_OtlietBQ-32" target="u76Rm4gEM_C_OtlietBQ-5" edge="1">
          <mxGeometry relative="1" as="geometry" />
        </mxCell>
        <mxCell id="u76Rm4gEM_C_OtlietBQ-32" value="&lt;b&gt;Se realizan en&lt;/b&gt;" style="rhombus;whiteSpace=wrap;html=1;" parent="1" vertex="1">
          <mxGeometry x="390" y="760" width="80" height="80" as="geometry" />
        </mxCell>
        <mxCell id="u76Rm4gEM_C_OtlietBQ-35" value="&lt;u&gt;ID&lt;/u&gt;" style="ellipse;whiteSpace=wrap;html=1;" parent="1" vertex="1">
          <mxGeometry x="270" y="485" width="70" height="30" as="geometry" />
        </mxCell>
        <mxCell id="u76Rm4gEM_C_OtlietBQ-38" value="Fecha" style="ellipse;whiteSpace=wrap;html=1;" parent="1" vertex="1">
          <mxGeometry x="375" y="470" width="90" height="40" as="geometry" />
        </mxCell>
        <mxCell id="u76Rm4gEM_C_OtlietBQ-39" value="Hora" style="ellipse;whiteSpace=wrap;html=1;" parent="1" vertex="1">
          <mxGeometry x="460" y="520" width="100" height="40" as="geometry" />
        </mxCell>
        <mxCell id="u76Rm4gEM_C_OtlietBQ-40" value="Precio" style="ellipse;whiteSpace=wrap;html=1;" parent="1" vertex="1">
          <mxGeometry x="460" y="590" width="100" height="40" as="geometry" />
        </mxCell>
        <mxCell id="u76Rm4gEM_C_OtlietBQ-41" value="TÃ­tulo" style="ellipse;whiteSpace=wrap;html=1;" parent="1" vertex="1">
          <mxGeometry x="375" y="630" width="100" height="40" as="geometry" />
        </mxCell>
        <mxCell id="u76Rm4gEM_C_OtlietBQ-42" value="DescripciÃ³n" style="ellipse;whiteSpace=wrap;html=1;" parent="1" vertex="1">
          <mxGeometry x="240" y="630" width="100" height="40" as="geometry" />
        </mxCell>
        <mxCell id="u76Rm4gEM_C_OtlietBQ-49" value="ID" style="ellipse;whiteSpace=wrap;html=1;" parent="1" vertex="1">
          <mxGeometry x="680" y="290" width="100" height="50" as="geometry" />
        </mxCell>
        <mxCell id="u76Rm4gEM_C_OtlietBQ-50" value="Nombre" style="ellipse;whiteSpace=wrap;html=1;" parent="1" vertex="1">
          <mxGeometry x="700" y="400" width="90" height="50" as="geometry" />
        </mxCell>
        <mxCell id="u76Rm4gEM_C_OtlietBQ-53" value="&lt;u&gt;ID&lt;/u&gt;" style="ellipse;whiteSpace=wrap;html=1;" parent="1" vertex="1">
          <mxGeometry x="590" y="630" width="90" height="40" as="geometry" />
        </mxCell>
        <mxCell id="u76Rm4gEM_C_OtlietBQ-54" value="DirecciÃ³n" style="ellipse;whiteSpace=wrap;html=1;" parent="1" vertex="1">
          <mxGeometry x="690" y="670" width="100" height="40" as="geometry" />
        </mxCell>
        <mxCell id="u76Rm4gEM_C_OtlietBQ-55" value="Nombre" style="ellipse;whiteSpace=wrap;html=1;" parent="1" vertex="1">
          <mxGeometry x="700" y="730" width="100" height="40" as="geometry" />
        </mxCell>
        <mxCell id="u76Rm4gEM_C_OtlietBQ-56" value="TelÃ©fono" style="ellipse;whiteSpace=wrap;html=1;" parent="1" vertex="1">
          <mxGeometry x="690" y="800" width="100" height="50" as="geometry" />
        </mxCell>
        <mxCell id="EZ-_qRA3l9sIQdG_2kRw-1" value="(1,n)" style="text;html=1;align=center;verticalAlign=middle;resizable=0;points=[];autosize=1;" parent="1" vertex="1">
          <mxGeometry x="10" y="550" width="40" height="20" as="geometry" />
        </mxCell>
        <mxCell id="EZ-_qRA3l9sIQdG_2kRw-2" value="(0,n)" style="text;html=1;align=center;verticalAlign=middle;resizable=0;points=[];autosize=1;" parent="1" vertex="1">
          <mxGeometry x="238" y="556" width="40" height="20" as="geometry" />
        </mxCell>
        <mxCell id="EZ-_qRA3l9sIQdG_2kRw-5" value="(n,1)" style="text;html=1;align=center;verticalAlign=middle;resizable=0;points=[];autosize=1;" parent="1" vertex="1">
          <mxGeometry x="370" y="710" width="40" height="20" as="geometry" />
        </mxCell>
        <mxCell id="EZ-_qRA3l9sIQdG_2kRw-6" value="(1,n)" style="text;html=1;align=center;verticalAlign=middle;resizable=0;points=[];autosize=1;" parent="1" vertex="1">
          <mxGeometry x="503" y="770" width="40" height="20" as="geometry" />
        </mxCell>
        <mxCell id="EZ-_qRA3l9sIQdG_2kRw-7" value="(1,n)" style="text;html=1;align=center;verticalAlign=middle;resizable=0;points=[];autosize=1;" parent="1" vertex="1">
          <mxGeometry x="320" y="440" width="40" height="20" as="geometry" />
        </mxCell>
        <mxCell id="EZ-_qRA3l9sIQdG_2kRw-8" value="(1,1)" style="text;html=1;align=center;verticalAlign=middle;resizable=0;points=[];autosize=1;" parent="1" vertex="1">
          <mxGeometry x="490" y="345" width="40" height="20" as="geometry" />
        </mxCell>
        <mxCell id="KMMMAnW7-SWp0cRhZt_q-3" style="edgeStyle=orthogonalEdgeStyle;rounded=0;orthogonalLoop=1;jettySize=auto;html=1;exitX=0;exitY=0.5;exitDx=0;exitDy=0;entryX=0;entryY=0.75;entryDx=0;entryDy=0;" edge="1" parent="1" source="UcTRCQob1DQ4sOOuTBI0-2" target="u76Rm4gEM_C_OtlietBQ-1">
          <mxGeometry relative="1" as="geometry" />
        </mxCell>
        <mxCell id="UcTRCQob1DQ4sOOuTBI0-2" value="&lt;b&gt;Puede hacer amigos&lt;/b&gt;" style="rhombus;whiteSpace=wrap;html=1;" parent="1" vertex="1">
          <mxGeometry x="-245" y="570" width="85" height="90" as="geometry" />
        </mxCell>
        <mxCell id="5D3FNTWJ_CW6h_wblPsu-1" value="(1,n)" style="text;html=1;align=center;verticalAlign=middle;resizable=0;points=[];autosize=1;" parent="1" vertex="1">
          <mxGeometry x="-155" y="560" width="40" height="20" as="geometry" />
        </mxCell>
        <mxCell id="YrSI0ktrsko_wzmwLt7F-16" style="edgeStyle=orthogonalEdgeStyle;rounded=0;orthogonalLoop=1;jettySize=auto;html=1;exitX=1;exitY=0.5;exitDx=0;exitDy=0;entryX=0;entryY=0.5;entryDx=0;entryDy=0;endArrow=none;endFill=0;" parent="1" source="YrSI0ktrsko_wzmwLt7F-1" target="YrSI0ktrsko_wzmwLt7F-2" edge="1">
          <mxGeometry relative="1" as="geometry" />
        </mxCell>
        <mxCell id="YrSI0ktrsko_wzmwLt7F-1" value="&lt;b&gt;Empresa&lt;/b&gt;" style="rounded=0;whiteSpace=wrap;html=1;" parent="1" vertex="1">
          <mxGeometry x="-160" y="760" width="120" height="60" as="geometry" />
        </mxCell>
        <mxCell id="YrSI0ktrsko_wzmwLt7F-17" style="edgeStyle=orthogonalEdgeStyle;rounded=0;orthogonalLoop=1;jettySize=auto;html=1;exitX=1;exitY=0.5;exitDx=0;exitDy=0;entryX=0;entryY=0.75;entryDx=0;entryDy=0;endArrow=none;endFill=0;" parent="1" source="YrSI0ktrsko_wzmwLt7F-2" target="u76Rm4gEM_C_OtlietBQ-2" edge="1">
          <mxGeometry relative="1" as="geometry" />
        </mxCell>
        <mxCell id="YrSI0ktrsko_wzmwLt7F-2" value="Crea" style="rhombus;whiteSpace=wrap;html=1;" parent="1" vertex="1">
          <mxGeometry x="80" y="690" width="80" height="80" as="geometry" />
        </mxCell>
        <mxCell id="YrSI0ktrsko_wzmwLt7F-18" style="edgeStyle=orthogonalEdgeStyle;rounded=0;orthogonalLoop=1;jettySize=auto;html=1;exitX=1;exitY=1;exitDx=0;exitDy=0;endArrow=none;endFill=0;" parent="1" source="YrSI0ktrsko_wzmwLt7F-3" target="YrSI0ktrsko_wzmwLt7F-1" edge="1">
          <mxGeometry relative="1" as="geometry" />
        </mxCell>
        <mxCell id="YrSI0ktrsko_wzmwLt7F-3" value="&lt;u&gt;ID&lt;/u&gt;" style="ellipse;whiteSpace=wrap;html=1;" parent="1" vertex="1">
          <mxGeometry x="-245" y="690" width="80" height="40" as="geometry" />
        </mxCell>
        <mxCell id="YrSI0ktrsko_wzmwLt7F-20" style="edgeStyle=orthogonalEdgeStyle;rounded=0;orthogonalLoop=1;jettySize=auto;html=1;exitX=1;exitY=0.5;exitDx=0;exitDy=0;entryX=0;entryY=0.5;entryDx=0;entryDy=0;endArrow=none;endFill=0;" parent="1" source="YrSI0ktrsko_wzmwLt7F-4" target="YrSI0ktrsko_wzmwLt7F-1" edge="1">
          <mxGeometry relative="1" as="geometry" />
        </mxCell>
        <mxCell id="YrSI0ktrsko_wzmwLt7F-4" value="Nombre" style="ellipse;whiteSpace=wrap;html=1;" parent="1" vertex="1">
          <mxGeometry x="-337.5" y="810" width="95" height="40" as="geometry" />
        </mxCell>
        <mxCell id="YrSI0ktrsko_wzmwLt7F-21" style="edgeStyle=orthogonalEdgeStyle;rounded=0;orthogonalLoop=1;jettySize=auto;html=1;exitX=1;exitY=0.5;exitDx=0;exitDy=0;entryX=0;entryY=1;entryDx=0;entryDy=0;endArrow=none;endFill=0;" parent="1" source="YrSI0ktrsko_wzmwLt7F-5" target="YrSI0ktrsko_wzmwLt7F-1" edge="1">
          <mxGeometry relative="1" as="geometry" />
        </mxCell>
        <mxCell id="YrSI0ktrsko_wzmwLt7F-5" value="DirecciÃ³n" style="ellipse;whiteSpace=wrap;html=1;" parent="1" vertex="1">
          <mxGeometry x="-260" y="850" width="90" height="40" as="geometry" />
        </mxCell>
        <mxCell id="YrSI0ktrsko_wzmwLt7F-22" style="edgeStyle=orthogonalEdgeStyle;rounded=0;orthogonalLoop=1;jettySize=auto;html=1;exitX=1;exitY=0;exitDx=0;exitDy=0;entryX=0.25;entryY=1;entryDx=0;entryDy=0;endArrow=none;endFill=0;" parent="1" source="YrSI0ktrsko_wzmwLt7F-6" target="YrSI0ktrsko_wzmwLt7F-1" edge="1">
          <mxGeometry relative="1" as="geometry" />
        </mxCell>
        <mxCell id="YrSI0ktrsko_wzmwLt7F-6" value="TelÃ©fono" style="ellipse;whiteSpace=wrap;html=1;" parent="1" vertex="1">
          <mxGeometry x="-190" y="900" width="90" height="30" as="geometry" />
        </mxCell>
        <mxCell id="YrSI0ktrsko_wzmwLt7F-23" style="edgeStyle=orthogonalEdgeStyle;rounded=0;orthogonalLoop=1;jettySize=auto;html=1;exitX=0.5;exitY=0;exitDx=0;exitDy=0;entryX=0.5;entryY=1;entryDx=0;entryDy=0;endArrow=none;endFill=0;" parent="1" source="YrSI0ktrsko_wzmwLt7F-7" target="YrSI0ktrsko_wzmwLt7F-1" edge="1">
          <mxGeometry relative="1" as="geometry" />
        </mxCell>
        <mxCell id="YrSI0ktrsko_wzmwLt7F-7" value="E-mail" style="ellipse;whiteSpace=wrap;html=1;" parent="1" vertex="1">
          <mxGeometry x="-80" y="890" width="70" height="40" as="geometry" />
        </mxCell>
        <mxCell id="YrSI0ktrsko_wzmwLt7F-19" style="edgeStyle=orthogonalEdgeStyle;rounded=0;orthogonalLoop=1;jettySize=auto;html=1;exitX=1;exitY=0.5;exitDx=0;exitDy=0;entryX=0;entryY=0;entryDx=0;entryDy=0;endArrow=none;endFill=0;" parent="1" source="YrSI0ktrsko_wzmwLt7F-8" target="YrSI0ktrsko_wzmwLt7F-1" edge="1">
          <mxGeometry relative="1" as="geometry" />
        </mxCell>
        <mxCell id="YrSI0ktrsko_wzmwLt7F-8" value="ContraseÃ±a" style="ellipse;whiteSpace=wrap;html=1;" parent="1" vertex="1">
          <mxGeometry x="-290" y="750" width="90" height="40" as="geometry" />
        </mxCell>
        <mxCell id="YrSI0ktrsko_wzmwLt7F-24" style="edgeStyle=orthogonalEdgeStyle;rounded=0;orthogonalLoop=1;jettySize=auto;html=1;exitX=0;exitY=0;exitDx=0;exitDy=0;entryX=1;entryY=1;entryDx=0;entryDy=0;endArrow=none;endFill=0;" parent="1" source="YrSI0ktrsko_wzmwLt7F-10" target="YrSI0ktrsko_wzmwLt7F-1" edge="1">
          <mxGeometry relative="1" as="geometry" />
        </mxCell>
        <mxCell id="YrSI0ktrsko_wzmwLt7F-10" value="Foto" style="ellipse;whiteSpace=wrap;html=1;" parent="1" vertex="1">
          <mxGeometry y="850" width="90" height="40" as="geometry" />
        </mxCell>
        <mxCell id="YrSI0ktrsko_wzmwLt7F-14" style="edgeStyle=orthogonalEdgeStyle;rounded=0;orthogonalLoop=1;jettySize=auto;html=1;exitX=0;exitY=0.5;exitDx=0;exitDy=0;entryX=1;entryY=0;entryDx=0;entryDy=0;endArrow=none;endFill=0;" parent="1" source="YrSI0ktrsko_wzmwLt7F-11" target="u76Rm4gEM_C_OtlietBQ-2" edge="1">
          <mxGeometry relative="1" as="geometry">
            <Array as="points">
              <mxPoint x="500" y="510" />
              <mxPoint x="450" y="510" />
              <mxPoint x="450" y="550" />
            </Array>
          </mxGeometry>
        </mxCell>
        <mxCell id="YrSI0ktrsko_wzmwLt7F-11" value="Foto" style="ellipse;whiteSpace=wrap;html=1;" parent="1" vertex="1">
          <mxGeometry x="500" y="470" width="90" height="40" as="geometry" />
        </mxCell>
        <mxCell id="YrSI0ktrsko_wzmwLt7F-13" style="edgeStyle=orthogonalEdgeStyle;rounded=0;orthogonalLoop=1;jettySize=auto;html=1;exitX=1;exitY=1;exitDx=0;exitDy=0;entryX=0;entryY=0;entryDx=0;entryDy=0;endArrow=none;endFill=0;" parent="1" source="YrSI0ktrsko_wzmwLt7F-12" target="u76Rm4gEM_C_OtlietBQ-1" edge="1">
          <mxGeometry relative="1" as="geometry">
            <Array as="points">
              <mxPoint x="-223" y="420" />
              <mxPoint x="-160" y="420" />
              <mxPoint x="-160" y="470" />
            </Array>
          </mxGeometry>
        </mxCell>
        <mxCell id="YrSI0ktrsko_wzmwLt7F-12" value="Foto" style="ellipse;whiteSpace=wrap;html=1;" parent="1" vertex="1">
          <mxGeometry x="-300" y="370" width="90" height="40" as="geometry" />
        </mxCell>
        <mxCell id="KMMMAnW7-SWp0cRhZt_q-1" value="SubTipo" style="ellipse;whiteSpace=wrap;html=1;" vertex="1" parent="1">
          <mxGeometry x="530" y="210" width="120" height="80" as="geometry" />
        </mxCell>
      </root>
    </mxGraphModel>
  </diagram>
</mxfile>
